<svg height="1164" viewBox="0 0 1377 1164" width="1377" xmlns="http://www.w3.org/2000/svg" xmlns:xlink="http://www.w3.org/1999/xlink"><mask id="a" fill="#fff"><path d="m.99797722.0645h335.45772878v273.382738h-335.45772878z" fill="#fff" fill-rule="evenodd"/></mask><mask id="b" fill="#fff"><path d="m100.614 3.1035-58.89 22.581c-10.3245 3.9585-18.6375 13.851-22.497 26.778l-18.4935 61.8975c-2.4495 8.2005 2.2605 17.01 9.096 17.01h202.0635c6.906 0 11.6205-8.979 9.036-17.2095l-18.9195-60.2295c-3.843-12.237-11.706-21.6645-21.4725-25.7445l-59.2455-24.7575c-3.489-1.4595-7.116-2.19-10.7445-2.19-3.345 0-6.6915.621-9.933 1.8645" fill="#fff" fill-rule="evenodd"/></mask><mask id="c" fill="#fff"><path d="m100.614 3.1035-58.89 22.581c-10.3245 3.9585-18.6375 13.851-22.497 26.778l-18.4935 61.8975c-2.4495 8.2005 2.2605 17.01 9.096 17.01h202.0635c6.906 0 11.6205-8.979 9.036-17.2095l-18.9195-60.2295c-3.843-12.237-11.706-21.6645-21.4725-25.7445l-59.2455-24.7575c-3.489-1.4595-7.116-2.19-10.7445-2.19-3.345 0-6.6915.621-9.933 1.8645" fill="#fff" fill-rule="evenodd"/></mask><mask id="d" fill="#fff"><path d="m100.614 3.1035-58.89 22.581c-10.3245 3.9585-18.6375 13.851-22.497 26.778l-18.4935 61.8975c-2.4495 8.2005 2.2605 17.01 9.096 17.01h202.0635c6.906 0 11.6205-8.979 9.036-17.2095l-18.9195-60.2295c-3.843-12.237-11.706-21.6645-21.4725-25.7445l-59.2455-24.7575c-3.489-1.4595-7.116-2.19-10.7445-2.19-3.345 0-6.6915.621-9.933 1.8645" fill="#fff" fill-rule="evenodd"/></mask><mask id="e" fill="#fff"><path d="m100.614 3.1035-58.89 22.581c-10.3245 3.9585-18.6375 13.851-22.497 26.778l-18.4935 61.8975c-2.4495 8.2005 2.2605 17.01 9.096 17.01h202.0635c6.906 0 11.6205-8.979 9.036-17.2095l-18.9195-60.2295c-3.843-12.237-11.706-21.6645-21.4725-25.7445l-59.2455-24.7575c-3.489-1.4595-7.116-2.19-10.7445-2.19-3.345 0-6.6915.621-9.933 1.8645" fill="#fff" fill-rule="evenodd"/></mask><mask id="f" fill="#fff"><path d="m100.614 3.1035-58.89 22.581c-10.3245 3.9585-18.6375 13.851-22.497 26.778l-18.4935 61.8975c-2.4495 8.2005 2.2605 17.01 9.096 17.01h202.0635c6.906 0 11.6205-8.979 9.036-17.2095l-18.9195-60.2295c-3.843-12.237-11.706-21.6645-21.4725-25.7445l-59.2455-24.7575c-3.489-1.4595-7.116-2.19-10.7445-2.19-3.345 0-6.6915.621-9.933 1.8645" fill="#fff" fill-rule="evenodd"/></mask><g fill="none" fill-rule="evenodd"><g transform="translate(0 -.0645)"><path d="m1032.65625 1083.30765v-.045l-754.728-1.353h-.2085c-97.155-.174-175.9365 12.2505-175.965 27.75-.027 15.4995 78.7095 28.2075 175.8645 28.38 7.578.015 737.511 1.3215 745.089 1.3365 97.1565.174 175.938-12.2505 175.9665-27.75.0255-14.9745-73.446-27.339-166.0185-28.3185" fill="#edd4c2"/><path d="m267.65625 688.19685 753 1.7145c5.0775-82.7535 3.888-168.066-4.515-250.5495-1.5255-14.985-5.151-32.61-19.0065-38.5215-5.667-2.4195-12.093-2.2935-18.198-1.4505-19.2615 2.6595-38.3565 15.858-42.822 34.7835-7.335-9.3285-18.3165-15.273-30.609-15.2955-8.928-.015-17.1795 3.0975-23.85 8.3655-7.833-24.156-29.265-41.523-54.525-41.5695-28.3935-.051-52.0305 21.8025-56.9685 50.6535-10.9125-15.942-28.524-26.3145-48.4155-26.349-17.0985-.0315-32.5305 7.587-43.4985 19.8225-13.4505-26.472-39.657-44.463-69.816-44.517-30.9915-.0555-57.858 18.8535-71.0505 46.482-7.296-8.3475-17.67-13.578-29.1975-13.599-12.756-.0225-24.123 6.339-31.482 16.257-12.357-15.2595-30.5835-24.9405-50.946-24.9765-15.621-.0285-30.003 5.6325-41.4615 15.1335-7.938-16.542-26.5995-27.5475-44.85-29.4345-18.249-1.8855-37.2225 6.297-48.3765 20.865-14.256 18.624-14.889 43.9575-14.916 67.41-.0345 29.5725-.069 59.1465-.1035 88.719z" fill="#f9ca77"/><path d="m1046.9106 1055.6397-793.194-1.4205.96-535.6605 793.194 1.422z" fill="#edd4c2"/><path d="m1035.1113 992.5635-767.4-1.3755-.144 80.7765 177.9885.318c.0405-1.254.0645-2.517.057-3.792.0075 1.275-.0165 2.538-.057 3.792l413.9235.744c.0405-1.257.0645-2.5185.057-3.7935.0075 1.275-.0165 2.5365-.057 3.7935l175.488.315z" fill="#faf7f2"/><path d="m1035.4263 903.94335-767.712-1.3755-.144 80.7765 178.0605.318c.0405-1.254.066-2.517.057-3.792.009 1.275-.0165 2.538-.057 3.792l414.0915.744c.042-1.257.066-2.5185.057-3.7935.009 1.275-.015 2.5365-.057 3.7935l175.5585.315z" fill="#faf7f2"/><path d="m1034.2221 815.32185-764.985-1.3725-.1455 80.778 177.429.3165c.042-1.254.0645-2.517.057-3.792.0075 1.275-.015 2.538-.057 3.792l412.6215.741c.042-1.257.0645-2.5185.057-3.7935.0075 1.275-.015 2.5365-.057 3.7935l174.9345.3135z" fill="#faf7f2"/><path d="m1034.5635 726.7017-765.351-1.3725-.1455 80.778 177.5145.3165c.0405-1.2555.0645-2.517.057-3.792.0075 1.275-.0165 2.5365-.057 3.792l412.8195.741c.0405-1.2555.0645-2.5185.057-3.7935.0075 1.275-.0165 2.538-.057 3.7935l175.017.3135z" fill="#faf7f2"/><path d="m1034.8653 638.08155-765.6375-1.3725-.1425 80.7765 177.5775.318c.042-1.2555.066-2.517.057-3.792.009 1.275-.015 2.5365-.057 3.792l412.974.741c.0405-1.2555.0645-2.5185.057-3.7935.0075 1.275-.0165 2.538-.057 3.7935l175.083.3135z" fill="#faf7f2"/><path d="m1036.65825 549.4644-768.906-1.3785-.144 80.7765 178.338.3195c.042-1.2555.0645-2.5185.057-3.792.0075 1.2735-.015 2.5365-.057 3.792l414.7365.744c.0405-1.2555.0645-2.5185.057-3.7935.0075 1.275-.0165 2.538-.057 3.7935l175.83.315z" fill="#faf7f2"/><path d="m1036.938 460.84425-769.1475-1.3785-.144 80.7765 178.3935.3195c.042-1.2555.0645-2.5185.057-3.7935.0075 1.275-.015 2.538-.057 3.7935l414.867.744c.0405-1.2555.063-2.5185.057-3.7935.006 1.275-.0165 2.538-.057 3.7935l175.8855.315z" fill="#faf7f2"/><path d="m1034.6016 1091.88285-46.5915-.084c-6.2115-.009-11.286-5.103-11.2755-11.316l1.152-643.086c.0105-6.2145 5.1045-11.289 11.316-11.277l46.5915.084c6.213.0105 11.2875 5.103 11.277 11.316l-1.152 643.0875c-.012 6.213-5.103 11.2875-11.3175 11.2755" fill="#f5f2ed"/><path d="m290.52255 1089.8028-46.5915-.084c-6.2115-.0105-11.286-5.103-11.274-11.3175l1.1505-643.086c.012-6.2145 5.1045-11.2875 11.3175-11.277l46.5915.084c6.2115.012 11.286 5.103 11.2755 11.316l-1.152 643.0875c-.012 6.213-5.103 11.2875-11.3175 11.277" fill="#f5f2ed"/><path d="m492.63435 579.04395c-.006 3.264-3.7575 5.9025-8.3805 5.8935-4.6215-.009-8.364-2.661-8.358-5.9235s3.7575-5.901 8.3805-5.892c4.6215.0075 8.364 2.6595 8.358 5.922" fill="#f2ded0"/><path d="m844.33155 484.1616c-.006 3.2625-3.7575 5.901-8.3805 5.8935-4.6215-.009-8.364-2.661-8.358-5.925.006-3.261 3.7575-5.8995 8.3805-5.892 4.6215.009 8.364 2.6595 8.358 5.9235" fill="#f2ded0"/><path d="m821.86815 931.1616c-.006 3.2625-3.7575 5.901-8.3805 5.8935-4.6215-.009-8.364-2.661-8.358-5.925.006-3.261 3.7575-5.8995 8.3805-5.892 4.6215.009 8.364 2.6595 8.358 5.9235" fill="#f2ded0"/><path d="m940.34175 481.37985c-.8385-.003-50.886-2.0355-51.6915-1.9995-.804-.039-1.6215-.066-2.4615-.0675-8.973-.0165-16.251 2.175-16.254 4.8945-.006 2.718 7.263 4.9365 16.2375 4.953.8385 0 1.656-.0225 2.46-.06.8055.0405 50.8575.1545 51.696.156 8.973.0165 16.251-2.175 16.2555-4.8945.0045-2.718-7.269-2.967-16.242-2.982" fill="#f2ded0"/><path d="m1354.00635 698.748c-.006 3.2625-3.7575 5.901-8.3805 5.8935-4.6215-.009-8.364-2.661-8.358-5.925.006-3.261 3.7575-5.8995 8.3805-5.892 4.6215.009 8.364 2.6595 8.358 5.9235" fill="#f2ded0"/><path d="m65.0259 1073.0595c6.15-6.525 16.275-7.4355 24.8295-5.3775-3.054-3.3495-6.18-6.639-8.0475-10.857-2.5905-5.8575-2.9745-13.311 1.737-18.2565 4.9935-5.2425 12.684-5.1645 19.332-4.338 8.13 1.011 16.065 2.985 23.67 6.051 7.614 3.0705 14.6775 7.0455 21.3 11.889.747.546 1.542 1.5885 2.547 1.515 1.209-.0885.669-.498 1.2885-1.557 1.146-1.9575 1.8015-4.59 2.667-6.6945 1.7385-4.236 3.5565-8.4435 5.4585-12.6075 3.6915-8.0835 7.491-16.3995 12.249-23.9205 3.5145-5.556 8.406-11.1465 15.204-12.3345 8.916-1.56 14.7885 3.516 18.237 10.7295 2.979 1.965 3.762 5.925 4.542 9.8445 1.4445 7.2555 2.3985 14.634 2.832 22.02.873 14.8455-.4725 29.724-3.675 44.235.237.912.201 1.929-.246 2.973-3.519 8.2185-13.2465 9.3585-21.0705 10.023-12.3195 1.044-24.6525 2.0115-37.0065 2.61-20.85 1.0095-41.754.756-62.403-2.202-2.0265-.0975-4.3425-.363-6.69-.8445-4.2645.291-8.5125-.4245-12.357-2.3685-.0945-.0315-.186-.0585-.282-.096-2.8695-1.1505-4.959-3.162-6.2415-5.562-.5385-.9135-.915-1.872-1.095-2.853-.9975-4.0335-.0165-8.5845 3.2205-12.021" fill="#8ed1cc"/><path d="m3.04845 1136.0991c3.2175-4.464 8.0895-6.6765 12.6855-6.795-4.77-12.972-5.988-29.052 8.8245-35.433 10.1325-4.3665 18.3075 1.338 24.7275 6.7935 4.278 3.636 8.244 7.4205 11.1255 11.985.291-.222.588-.438.894-.6465 6.102-4.1685 13.3755-3.7065 19.095-1.5615 11.1375 4.1745 16.5975 13.9785 20.8995 24.7545 5.466 13.686-89.9445 8.1405-89.997 5.988-.0585.069-12.513.8235-8.2545-5.085" fill="#67626e"/><path d="m1275.88185 771.87165c-14.799 10.197-34.158 13.101-47.6565 21.219-16.2345 9.702-27.3765 24.282-40.401 29.0505-18.753 6.957-34.0455 1.392-45.9795-6.2385-11.658-7.6635-23.8695-19.713-22.08-39.816 1.272-13.9665 15.4635-28.572 25.5675-45.06 8.388-13.719 11.52-31.8285 26.448-45.2445 15-13.446 39.0045-18.6195 56.445-26.535 20.943-9.606 38.67-22.593 58.6005-24.243 28.83-2.28 74.547 10.0455 85.9635 22.4205 11.697 12.4635-7.0635 29.226-18.9285 46.008-8.169 11.5965-28.6545 18.702-43.2975 31.3275-12.192 10.476-19.806 26.901-34.6815 37.1115" fill="#9ca9ed"/><path d="m1011.2094 685.09425c17.0115 10.0185 23.976 26.7735 34.656 38.3865 12.8295 13.899 29.3145 25.5165 33.0165 38.631 5.079 18.189-5.0865 31.083-14.9205 40.5-10.0545 9.4245-23.2365 18.2685-41.3715 15.684-13.0305-1.809-25.9125-13.656-42.399-19.914-13.7655-5.265-31.782-4.605-46.785-12.0195-15.0675-7.413-24.663-22.008-37.5315-30.222-15.387-9.873-35.2545-13.956-44.7555-23.8755-13.302-13.8165-29.124-27.2025-21.93-40.365 6.987-13.0365 39.18-30.4035 64.5405-33.5085 18.2385-2.1645 38.13 6.834 59.481 12.0525 17.829 4.2825 40.917 4.623 57.999 14.6505" fill="#899aed"/><path d="m1192.2276 626.9985c-7.1745 13.4295-24.768 22.2645-31.8585 34.0965-8.5965 14.1525-9.642 30.699-18.0525 40.1175-12.8745 14.772-26.52 17.499-37.9005 16.707-11.229-.972-25.161-5.6895-34.908-22.344-6.36-10.6845-2.6535-27.3855-5.76-43.0845-2.544-13.0845-15.6285-25.449-15.585-40.71.06-15.4425 15.9225-30.969 21.6945-44.3565 6.894-16.263 3.2895-32.6085 15.3675-44.0985 19.1355-18.012 75.435-46.476 97.8405-42.4965 22.6065 3.549 21.906 41.238 26.7105 61.4865 2.9865 12.8385-11.5275 25.335-14.664 41.0985-2.541 12.99 4.359 30.0105-2.8845 43.584" fill="#a6b1ed"/><path d="m1143.19185 535.60695c-9.981 27.4455-17.2875 56.04-23.2995 84.7065-1.4745 7.182-3.0075 14.349-4.1865 21.588l-1.899 10.83-.9465 5.4135-.783 5.4405-3.1095 21.759-2.4315 21.84-.609 5.4555-.438 5.4765-.8415 10.9515c-.534 7.299-1.2405 14.583-1.422 21.9045l-.894 21.9285c-.2175 3.651-.1005 7.3125-.147 10.9695l-.0285 10.968c-.3 14.622.537 29.2305 1.032 43.827.1305 7.305.9315 14.577 1.4595 21.8565l1.74 21.8265.0255.339c.3465 4.3365-2.889 8.133-7.227 8.478-4.3365.3465-8.1315-2.8905-8.4765-7.2255-.006-.0735-.0135-.18-.0165-.252l-1.0575-22.272c-.2985-7.4235-.867-14.832-.765-22.266-.0285-14.853-.393-29.697.3855-44.5275l.39-11.121c.165-3.705.1695-7.416.507-11.112l1.623-22.1865c.423-7.401 1.3755-14.7585 2.1525-22.128l1.2105-11.049.621-5.5185.792-5.5005 3.171-21.9915 3.849-21.876.9675-5.4645 1.1325-5.436 2.268-10.8675c1.4265-7.2615 3.2055-14.448 4.9245-21.6435 7.017-28.761 15.2385-57.168 26.2995-84.7755.447-1.1145 1.7145-1.656 2.829-1.209 1.092.438 1.6335 1.6605 1.236 2.76z" fill="#67626e"/><path d="m896.9604 693.96825c.321.0075.645.0255.969.0555l.4815.054.327.0615 1.2285.246c.8325.1575 1.587.3645 2.385.546 1.584.3585 3.114.804 4.674 1.2015 3.0915.855 6.1605 1.755 9.2145 2.712 6.093 1.929 12.1545 3.9675 18.129 6.2295 11.976 4.4625 23.7405 9.4995 35.2335 15.1215 11.4915 5.625 22.7115 11.838 33.564 18.678 10.8405 6.846 21.3675 14.2665 31.2315 22.554 9.8805 8.2545 19.2375 17.1945 27.7935 26.916 8.448 9.816 16.062 20.3895 22.6185 31.644l4.6335 8.607c.8205 1.4115 1.4025 2.943 2.097 4.4175l2.007 4.467c.654 1.494 1.365 2.9655 1.9725 4.4805l1.671 4.605 1.671 4.6125.8325 2.3055c.276.7695.4545 1.5705.6855 2.3535l2.6235 9.4575c.492 1.5645.7215 3.189 1.0545 4.788l.939 4.8195.936 4.821c.2685 1.6125.396 3.246.6 4.869l1.1055 9.7575c.3405 3.003-1.818 5.7135-4.821 6.0525-3.0015.342-5.712-1.818-6.0525-4.8195-.0045-.03-.0075-.0615-.0105-.0915l-.0405-.45-.84-9.189c-.156-1.53-.2355-3.072-.453-4.593l-.783-4.545-.7785-4.548c-.2805-1.512-.453-3.0495-.888-4.527l-2.268-8.9505c-.201-.741-.348-1.5-.5925-2.2305l-.7395-2.187-1.476-4.3785-1.4745-4.3815c-.5415-1.443-1.185-2.8455-1.773-4.2705l-1.8-4.263c-.6255-1.4115-1.1355-2.874-1.887-4.227l-4.2105-8.2605c-5.9895-10.8255-13.026-21.093-20.9325-30.7125-8.0145-9.5295-16.866-18.3825-26.2845-26.6205-9.402-8.268-19.5165-15.7455-29.9835-22.6905-10.479-6.9375-21.3645-13.2915-32.5545-19.0845-11.1915-5.7915-22.6845-11.022-34.4025-15.693-5.85-2.3655-11.784-4.509-17.7465-6.5475-2.9865-1.0095-5.9865-1.9635-8.997-2.8695-1.506-.42-3.0165-.897-4.5195-1.272-.747-.186-1.5195-.4155-2.2455-.567l-1.0995-.246-.2565-.057c-.0375-.003-.072-.006-.1095-.015-.069-.0165-.1395-.0435-.2145-.0825l-1.3125-.684c-.8775-.4575-1.2195-1.5375-.762-2.4165.327-.624.972-.978 1.6305-.963" fill="#67626e"/><path d="m1294.1031 682.8618c-5.7555 2.067-11.5305 4.692-17.127 7.4445-5.6205 2.76-11.1285 5.757-16.533 8.9265-10.824 6.321-21.264 13.2945-31.2735 20.832-20.079 15.0105-38.3865 32.2665-55.1535 50.8185-16.605 18.711-31.6935 38.7465-44.874 59.979-13.2495 21.183-24.8505 43.371-34.8495 66.2535l-.0045.0075c-1.5105 3.4575-5.538 5.0355-8.9955 3.5235-3.459-1.509-5.0355-5.538-3.5265-8.9955.027-.0585.0645-.1425.093-.1995 10.9995-23.1135 23.619-45.4575 37.8795-66.6975 14.187-21.288 30.2775-41.28 47.844-59.8275 17.73-18.39 36.954-35.361 57.876-49.977 10.431-7.3395 21.2745-14.088 32.4885-20.1585 5.598-3.045 11.298-5.9115 17.1135-8.538 5.8335-2.6325 11.664-5.0775 17.8785-7.083 1.0155-.33 2.1075.2295 2.436 1.2465.321.996-.207 2.061-1.185 2.4135z" fill="#67626e"/><path d="m1160.688 1107.42045-121.836-.219c-6.6825-.0105-12.1395-5.49-12.129-12.1725l-19.893-200.1015c.012-6.6825 5.4885-12.1425 12.1725-12.1305l162.3405.291c6.6825.012 12.141 5.49 12.129 12.174l-20.6115 200.0295c-.012 6.6825-5.49 12.141-12.1725 12.129" fill="#67626e"/><path d="m1188.5757 942.78075 4.8975-47.52c.0105-6.6825-5.448-12.1605-12.1305-12.1725l-162.3405-.291c-6.684-.012-12.1605 5.448-12.1725 12.1305l4.725 47.535z" fill="#544f59"/><path d="m1196.7774 922.25385-193.35-.345c-6.507-.012-11.82-5.3445-11.808-11.8515l.0615-34.641c.0105-6.5055 5.3445-11.8185 11.85-11.8065l193.3515.3465c6.5055.012 11.8185 5.343 11.8065 11.8485l-.0615 34.6425c-.0105 6.5055-5.343 11.8185-11.85 11.8065" fill="#7a7482"/><path d="m350.3424 264.7221c.147 8.301.3255 16.6185 1.431 24.483.231 1.986.6315 3.8805.9285 5.823.3045 1.9395.8325 3.756 1.224 5.64.4785 1.8435 1.0185 3.642 1.581 5.4525.642 1.791 1.2225 3.57 1.9965 5.406 1.425 3.6615 3.2655 7.4865 5.0355 12.2205 1.722 4.6635 3.2445 9.915 3.93 15.078.252 1.3065.3285 2.5635.45 3.837l.3285 3.816.072 3.7005.0315 1.851.0135.927.0045.4695-.033.5745c-.1365 6.0465-1.812 12.5925-4.8195 18.111-2.973 5.5545-6.927 10.0035-10.7895 13.5555-3.891 3.5685-7.761 6.447-11.412 9.108-7.305 5.2635-13.8375 9.7965-18.6135 14.718-4.7955 4.9125-7.7205 9.8475-9.036 15.675-.6465 2.922-1.044 6.0135-.972 9.354l.1755 12.843c.2655 17.406.252 34.9875.2115 52.242-.0045 8.6235.0405 17.181.171 25.7685l.0525 3.2205.024 1.6095c.0015.297.018.4755.006.8655l-.03 1.134c-.048 1.5135-.1035 3.0285-.189 4.542l-.609 4.5165c-1.029 5.988-2.9655 11.7285-5.463 16.9275-5.1165 10.335-11.997 18.45-18.8385 25.353-6.879 6.933-13.9155 12.807-20.4615 18.405-3.291 2.802-6.4395 5.5035-9.345 8.1645-2.8875 2.652-5.6145 5.277-7.7325 7.752-2.1375 2.4585-3.7155 4.8045-4.446 6.468-.39.837-.519 1.4595-.6135 1.9095-.0555.2355.0435.384-.042.5625.0375.165.102.3045.045.4575l-3.147 8.46c-3.468 9.327-13.8405 14.076-23.1675 10.6065-7.2-2.6775-11.6685-9.5085-11.7375-16.758-.015-2.01-.012-4.0455.153-6.0375.276-1.956.5265-3.987 1.005-5.8485.948-3.759 2.31-7.2285 3.897-10.248 3.189-6.081 6.9735-10.6545 10.6545-14.6025 3.7095-3.951 7.3995-7.1805 11.0115-10.257 3.6135-3.0555 7.161-5.8575 10.5825-8.5485 6.8505-5.3955 13.317-10.4385 18.8565-15.6165 5.5755-5.1465 10.0785-10.428 12.897-15.558 1.3515-2.568 2.289-5.079 2.8665-7.611.1035-.6375.225-1.2735.3645-1.911.0405-.6495.084-1.3005.153-1.953l.0525-.489c.0195-.1485.015-.513.024-.759l.039-1.6395.0735-3.282c.207-8.751.5025-17.5305.8475-26.2425.717-17.412 1.398-34.5015 1.8045-51.774l.336-13.1625c.1245-5.3325.9495-10.8885 2.4555-16.3515 1.5165-5.4645 3.885-10.8615 6.9735-15.6465 3.0645-4.809 6.741-9.015 10.563-12.609 7.6815-7.2015 15.795-12.147 22.6935-16.7835 3.45-2.304 6.615-4.5195 9.2055-6.717 2.607-2.1975 4.4865-4.335 5.709-6.378 1.218-2.0535 1.9005-4.083 2.1105-6.699l.036-.2355.0075-.3435.012-.699.0285-1.398.069-2.802-.135-2.67c-.048-.885-.0465-1.8-.195-2.6295-.3135-3.459-1.1085-6.615-2.2215-10.1295-1.1115-3.447-2.8545-7.53-4.4205-12.006-.819-2.196-1.5165-4.563-2.2305-6.888-.642-2.352-1.251-4.7385-1.7655-7.1085-.4185-2.3745-.9705-4.767-1.2585-7.122-.2805-2.3535-.6585-4.728-.8445-7.059-.924-9.3735-.753-18.432-.5565-27.4575.1305-6.0555 5.1465-10.857 11.2005-10.725 5.901.1275 10.6125 4.8975 10.7235 10.7445z" fill="#544f59"/><path d="m340.002 214.9029s8.7735-70.599 59.244-87.8025-23.2365 99.396-23.2365 99.396 42.5535-22.26 85.7475.153c43.194 22.4145-60.5805 29.436-60.5805 29.436s47.5215 20.2605 53.226 54.138c5.703 33.876-84.9885-22.4895-84.9885-22.4895s53.931 63.5055 36.597 85.812-66.1605-74.337-66.1605-74.337-27.5865 115.2405-41.9475 87.1125c-14.3625-28.128 7.3755-94.38 7.3755-94.38s-76.476 52.476-76.4325 28.6845c.078-43.953 56.316-62.5875 56.316-62.5875s-98.7825 3.021-91.4985-8.091c23.1225-35.265 91.557-25.0545 91.557-25.0545s-83.4285-87.3375-45.96-86.55c37.467.7875 100.7415 76.56 100.7415 76.56" fill="#93a2ed"/><path d="m132.03375 377.8725s7.8945-63.531 53.3115-79.014c45.417-15.48-20.9085 89.4465-20.9085 89.4465s38.292-20.0325 77.1615.138-54.516 26.4885-54.516 26.4885 42.765 18.231 47.898 48.7185c5.133 30.4845-76.479-20.2395-76.479-20.2395s48.5295 57.1485 32.9325 77.223c-15.6 20.073-59.5365-66.8955-59.5365-66.8955s-24.8265 103.704-37.749 78.3915c-12.924-25.311 6.636-84.9315 6.636-84.9315s-68.8185 47.2215-68.781 25.8135c.072-39.5535 50.6805-56.322 50.6805-56.322s-88.893 2.718-82.338-7.281c20.8065-31.7355 82.3905-22.5465 82.3905-22.5465s-75.0765-78.594-41.3595-77.886c33.717.7095 90.657 68.8965 90.657 68.8965" fill="#9ca9ed"/><path d="m146.0874 437.87115c.1335 8.3235.2715 16.6545-.3135 25.179-.5145 8.4795-1.6395 17.2455-3.7455 25.809-1.068 4.2285-2.2695 8.286-3.276 11.9565-1.002 3.645-1.641 6.9855-2.088 10.446-.144 1.7535-.384 3.459-.3975 5.28l-.1005 2.691c-.009.912.0255 1.8465.0345 2.7675l.042 2.769.174 2.256c.0855.723.234 1.4085.327 2.1165l.489 2.007c.7845 2.592 2.0025 4.9275 3.753 7.3185 1.728 2.385 4.095 4.803 6.825 7.3605 5.427 5.094 12.465 10.8105 18.408 18.6255 2.964 3.876 5.598 8.232 7.629 12.8385 2.034 4.605 3.5025 9.423 4.4265 14.2125.885 4.782 1.344 9.54 1.4445 14.196l.225 12.2175c.285 16.1775.738 32.2575 1.2405 48.4965.246 8.1195.4635 16.2945.624 24.4545l.1155 6.12.051 3.0585.018.7335.0375.567.0705 1.1325c.1935 3.015.6645 5.9565 1.5585 8.8395.867 2.889 1.998 5.742 3.495 8.574 1.506 2.829 3.2925 5.643 5.3205 8.451 4.0845 5.6265 9.1365 11.169 14.619 17.0625 5.4675 5.9625 11.463 12.1125 17.127 20.2305 2.7975 4.074 5.5125 8.712 7.539 14.178 2.0355 5.4255 3.234 11.7705 2.976 18.0495l-.0195.459c-.3645 8.919-7.8915 15.8535-16.8105 15.4875-8.919-.3645-15.8535-7.8915-15.489-16.8105.009-.2085.0255-.4785.042-.6855.1545-1.833-.045-3.636-.747-5.8365-.696-2.1795-1.941-4.6905-3.639-7.3545-3.4005-5.358-8.466-11.16-13.767-17.2995-5.334-6.174-11.0595-12.807-16.2495-20.5005-2.583-3.8595-5.0235-7.9845-7.158-12.402-2.1315-4.422-3.873-9.192-5.136-14.121-1.2975-4.9275-1.9605-10.0725-2.091-15.15l-.039-1.9065-.0135-.954.009-.786.054-3.0225.102-6.042c.1245-8.0565.195-16.101.2355-24.195.069-16.1925.183-32.5455.4725-48.8025l.201-12.105c.051-3.456-.1725-6.7995-.6315-10.011-1.0185-6.4095-3.1995-12.003-6.924-17.2515-1.857-2.6385-4.107-5.217-6.6915-7.869-2.586-2.658-5.5215-5.397-8.604-8.4915-3.066-3.099-6.339-6.57-9.237-10.857-2.904-4.239-5.3295-9.279-6.651-14.526-.282-1.3095-.5775-2.625-.801-3.936-.162-1.3035-.3555-2.619-.4575-3.912-.06-1.269-.132-2.6025-.1515-3.8175l.063-3.3105c.0285-1.1055.0315-2.2005.0825-3.315l.2415-3.381c.1125-2.235.4815-4.5435.7695-6.8205.7335-4.5615 1.833-9.156 3.132-13.2885 1.287-4.1055 2.5155-7.7865 3.5625-11.388 4.0365-14.136 4.905-29.754 5.1-45.5835l.0015-.1755c.0645-5.1315 4.278-9.243 9.411-9.18 5.04.063 9.0945 4.14 9.18 9.147" fill="#544f59"/><path d="m201.08505 1038.5127 3.6855-213.093c.3615-17.754.4995-35.535.6705-53.31l.522-53.3265 1.041-106.656 1.0425-106.6545.2595-26.6655.033-3.3315-.0585-2.916c-.0765-1.911.003-3.8265-.1785-5.7405l-.5085-5.751c-.2475-1.923-.5835-3.8535-.8595-5.784-1.323-7.7385-3.39-15.615-5.886-23.718-2.5275-8.1075-5.4285-16.494-8.2455-25.08-2.8635-8.571-5.5245-17.49-7.9455-26.4705-1.086-4.5555-2.34-9.0465-3.228-13.6635l-1.4385-6.888-1.185-6.942c-.8565-4.6185-1.38-9.282-1.968-13.932l-.435-3.4875-.3225-3.4215-.6255-6.8325c-.4335-4.557-.666-9.0915-1.008-13.635-.3-4.542-.4785-9.069-.723-13.602-.798-18.114-.939-36.1515-.7005-54.1605.0975-9.0045.3645-17.997.678-26.991.3315-9.0255.756-17.9085 1.359-27.1035.498-7.6005 7.0635-13.356 14.664-12.858 7.491.492 13.191 6.879 12.873 14.3415l-.0075.171c-.3705 8.556-.603 17.439-.7275 26.1855-.1095 8.778-.177 17.5605-.0765 26.334.1545 17.544.6825 35.0685 1.8375 52.455.333 4.338.6 8.6895.9825 13.011.423 4.3095.738 8.652 1.245 12.9345l.7335 6.429.372 3.21.465 3.117c.6225 4.155 1.173 8.3205 2.0385 12.426l1.1895 6.1785 1.428 6.132c.873 4.0995 2.1165 8.148 3.1725 12.219 2.3955 8.13 4.9845 16.203 7.9365 24.4305 2.907 8.2455 6.012 16.593 8.9745 25.395 2.9325 8.8215 5.6415 18.1035 7.5285 27.8535.4245 2.4585.891 4.902 1.26 7.377l.84 7.515c.276 2.505.2775 5.049.417 7.575l.1425 3.747.0405 3.333.3315 26.6685 1.323 106.668 1.323 106.671.663 53.3355c.222 17.778.4785 35.553.51 53.352l1.041 213.5475c.063 12.843-10.296 23.3055-23.139 23.367-12.8415.063-23.3025-10.2975-23.3655-23.139 0-.1335 0-.267.0015-.4005z" fill="#544f59"/><path d="m157.40625 70.8603s37.734-58.3515 93.813-69.42c74.6145-14.727-30.885 93.588-30.885 93.588s57.594.963 98.991 40.5555c41.3985 39.594-2.988 48.1905-20.799 36.0465-21.4755-14.643-69.087-15.588-69.087-15.588s39.0735 51.6165 32.106 83.3925c-7.86 35.8425-75.9225-57.6975-75.9225-57.6975s-38.397 72.294-66.9735 90.0885c-26.139 16.275 17.835-95.331 17.835-95.331s-111.6645 80.751-106.0395 35.034c6.2355-50.6775 89.973-69.4275 89.973-69.4275s-140.565 18.6495-116.6895-19.968c23.874-38.6175 106.0245-28.1625 106.0245-28.1625s-100.455-80.0775-52.0755-79.9905 99.729 56.88 99.729 56.88" fill="#a6b1ed" mask="url(#a)" transform="translate(4.5)"/><path d="m306.00735 1099.98195-121.8345-.219c-6.684-.0105-12.141-5.49-12.1305-12.174l-19.893-200.1c.012-6.684 5.49-12.1425 12.1725-12.1305l162.3405.2895c6.684.0135 12.141 5.49 12.129 12.1755l-20.6115 200.028c-.012 6.684-5.49 12.1425-12.1725 12.1305" fill="#67626e"/><path d="m333.89505 935.34075 4.8975-47.5185c.0105-6.684-5.4465-12.1605-12.1305-12.174l-162.3405-.2895c-6.6825-.012-12.1605 5.4465-12.1725 12.1305l4.725 47.535z" fill="#544f59"/><path d="m342.09825 914.8155-193.3515-.3465c-6.5055-.012-11.82-5.3445-11.808-11.85l.063-34.641c.0105-6.507 5.343-11.8185 11.8485-11.808l193.3515.348c6.5055.012 11.8185 5.343 11.8065 11.8485l-.0615 34.641c-.0105 6.507-5.343 11.82-11.8485 11.808" fill="#7a7482"/><path d="m1298.89455 1092.0102c-6.1275-6.5475-16.2555-7.4955-24.822-5.4675 3.0675-3.339 6.207-6.6165 8.091-10.8285 2.613-5.847 3.0225-13.299-1.6725-18.261-4.9785-5.262-12.6735-5.2125-19.3275-4.4085-8.1375.9825-16.0845 2.9295-23.703 5.967-7.629 3.042-14.7105 6.9915-21.3525 11.8125-.75.543-1.551 1.5825-2.556 1.506-1.2075-.093-.6675-.501-1.2825-1.5615-1.14-1.962-1.785-4.5975-2.6445-6.705-1.725-4.242-3.5265-8.4555-5.4165-12.6285-3.663-8.094-7.434-16.425-12.168-23.961-3.4965-5.568-8.37-11.178-15.1695-12.3915-8.913-1.5915-14.8065 3.4635-18.2835 10.665-2.9865 1.9545-3.786 5.9115-4.5795 9.828-1.47 7.2495-2.454 14.6265-2.913 22.011-.924 14.841.3675 29.724 3.5175 44.2455-.24.912-.2055 1.929.2385 2.9745 3.489 8.2335 13.218 9.408 21.042 10.0995 12.324 1.0875 24.66 2.1 37.017 2.742 20.8575 1.083 41.7705.9045 62.4435-1.9785 2.0265-.09 4.344-.3465 6.6975-.8205 4.263.3075 8.5155-.393 12.372-2.3235.093-.0315.186-.057.2805-.096 2.874-1.1385 4.9725-3.1425 6.2655-5.538.5415-.912.921-1.8705 1.1055-2.85 1.011-4.029.0465-8.583-3.18-12.0315" fill="#8ed1cc"/><path d="m321.9156 1078.0752c-2.6745-28.968 1.1085-39.3465 9.5295-65.697 7.395-23.1465 18.4635-46.491 38.358-60.444 1.3215-.927 3.009-1.8375 4.4625-1.1385 2.037.981 1.662 3.957.933 6.096-10.356 30.4005-23.5185 49.464-31.1145 80.667-1.6545 6.7995-6.8865 23.076-4.143 29.514 4.9365-2.7195 7.9275-7.881 10.7805-12.741 10.0035-17.04 21.8595-33.9555 39.117-43.584 1.92-1.071 4.3005-2.0445 6.2205-.9735 3.081 1.7175 1.8105 6.387.1155 9.4815-17.5155 31.9845-32.511 58.35-56.5065 85.809-2.6235 3.0045-8.718 3.4035-12.7035 3.306-3.153-.0765-13.3245-.8025-15.315-3.249-4.9095-6.0375-6.753-12.9465-8.304-20.574-4.725-23.2365-8.199-50.136 6.9405-65.8635 11.853-9.7665-2.19 37.2645 11.6295 59.391" fill="#a6b1ed"/><path d="m307.0548 1094.7861c7.995 19.0965-5.364 21.516-39.558 21.4545-34.1955-.06-78.762 1.758-65.8395-15.7725 15.8475-21.4965 26.418-39.0885 44.8665-42.969 12.672-2.667 47.415 5.9535 60.531 37.287" fill="#899aed"/><path d="m455.5797 908.4111-18.264-.0315c-3.552-.006-6.4635 2.8935-6.4695 6.447l-.2895 161.085c-.0075 3.5535 2.895 6.4665 6.447 6.471l18.2655.033c3.552.0075 6.465-2.895 6.4695-6.447l.2895-161.0865c.006-3.552-2.895-6.4635-6.4485-6.471" fill="#67626e"/><path d="m900.35895 909.20805-17.4765-.0315c-3.576-.0045-6.507 2.9145-6.5145 6.492l-.2895 160.9995c-.0045 3.5745 2.916 6.507 6.492 6.513l17.478.0315c3.576.0075 6.507-2.913 6.513-6.4905l.288-160.9995c.0075-3.576-2.913-6.507-6.4905-6.5145" fill="#67626e"/><path d="m455.6118 890.4096-18.264-.0315c-3.552-.006-6.4635 2.895-6.4695 6.447l-.2895 161.0865c-.0075 3.552 2.895 6.465 6.4485 6.4695l18.264.033c3.552.0075 6.465-2.895 6.4695-6.447l.2895-161.0865c.006-3.552-2.895-6.4635-6.4485-6.471" fill="#67626e"/><path d="m900.39105 891.20655-17.4765-.0315c-3.576-.0045-6.507 2.916-6.5145 6.492l-.2895 160.9995c-.0045 3.576 2.916 6.5085 6.492 6.513l17.478.0315c3.576.0075 6.507-2.913 6.513-6.4905l.288-160.9995c.0075-3.576-2.913-6.507-6.4905-6.5145" fill="#67626e"/><path d="m898.15425 924.3018-456.6255-.819c-26.2395-.0465-47.6685-21.5535-47.622-47.793l.003-1.83c.0165-9.162 7.527-16.6455 16.6875-16.6275l518.7255.9285c9.162.0165 16.644 7.5255 16.6275 16.6875l-.003 1.83c-.0465 26.2395-21.5535 47.67-47.793 47.6235" fill="#544f59"/><path d="m540.9375 795.79245.0705-38.958 253.1175.453-.069 38.958c-.063 34.857-28.371 63.0645-63.228 63.003l-126.888-.228c-34.8585-.063-63.066-28.371-63.003-63.228" fill="#fdd58b"/><path d="m842.94585 914.89305c-17.0265 0-35.649-9.0315-55.4145-26.886-4.2165-3.8085-8.2665-7.5045-12.168-11.0625-24.321-22.194-43.53-39.7245-57.87-42.7755-23.7255-5.052-26.8155 2.7855-28.476 6.9945-3.321 8.4045-12.822 12.531-21.228 9.21-8.406-3.318-12.531-12.8235-9.2115-21.228 6.807-17.244 23.7405-35.9175 65.727-26.9865 23.028 4.9005 44.04 24.075 73.119 50.6115 3.8625 3.5235 7.869 7.182 12.045 10.953 13.617 12.3015 26.1885 18.9945 34.5315 18.405 2.442-.177 5.742-.981 9.627-5.673 5.7615-6.963 16.077-7.9335 23.037-2.172 6.963 5.7615 7.9365 16.077 2.1735 23.037-8.694 10.506-19.923 16.5405-32.4705 17.4495-1.134.0825-2.274.123-3.4215.123" fill="#7acdc7"/><path d="m842.94585 914.89305c-17.0265 0-35.649-9.0315-55.4145-26.886l21.9375-24.2835c13.617 12.3015 26.1885 18.9945 34.5315 18.405 2.442-.177 5.742-.981 9.627-5.673 4.5645-5.517 7.482-14.3475 6.642-20.1045-2.772-18.9615-44.2785-68.2785-108.6585-73.7265l2.76-32.61c76.293 6.4575 132.8565 64.4895 138.2805 101.6055 2.187 14.9805-3.2355 32.9175-13.812 45.7005-8.6955 10.506-19.9245 16.5405-32.472 17.4495-1.134.0825-2.274.123-3.4215.123" fill="#fdd58b"/><path d="m496.94835 911.9355c-1.2075 0-2.406-.045-3.5955-.1365-12.5445-.9555-23.7495-7.0275-32.406-17.565-5.736-6.9825-4.7265-17.2935 2.256-23.0295 6.978-5.7375 17.2905-4.731 23.0295 2.256 3.8685 4.704 7.1655 5.5215 9.606 5.7075 8.3145.6165 20.9355-6.03 34.5975-18.282 4.191-3.759 8.2155-7.4055 12.0915-10.917 29.1705-26.4285 50.2485-45.5235 73.2915-50.3415 42.0225-8.7855 58.8855 9.9555 65.631 27.222 3.288 8.418-.87 17.907-9.288 21.195-8.418 3.2895-17.907-.8715-21.195-9.288-1.6455-4.2135-4.719-12.0555-28.4505-7.0965-14.349 3.0015-33.6195 20.46-58.017 42.561-3.915 3.549-7.98 7.233-12.213 11.028-19.764 17.7225-38.361 26.6865-55.338 26.6865" fill="#7acdc7"/><path d="m639.687 1034.1987h-.1065c-10.308-.057-18.6195-8.4615-18.5625-18.771l.9765-175.9635c.057-10.2735 8.4045-18.5625 18.6645-18.5625h.1065c10.308.057 18.6195 8.46 18.5625 18.7695l-.978 175.965c-.057 10.2735-8.403 18.5625-18.663 18.5625" fill="#7a7482"/><path d="m696.03375 1034.2998h-.033c-10.311-.0195-18.6525-8.391-18.633-18.7005l.315-175.965c.018-10.2975 8.373-18.633 18.666-18.633h.033c10.3095.018 18.6525 8.391 18.633 18.7005l-.315 175.965c-.018 10.296-8.373 18.633-18.666 18.633" fill="#7a7482"/><path d="m657.9507 990.9273-37.3215-.9435 1.656-65.4915 37.3215.9435z" fill="#7acdc7"/><path d="m714.74415 990.59625-37.3335-.0675.1185-65.505 37.3335.0675z" fill="#7acdc7"/><path d="m658.4502 1070.313-37.3335-.0675.2025-112.497 37.3335.0675z" fill="#524d57"/><path d="m714.59475 1074.06585-37.3335-.0675.21-116.487 37.3335.0675z" fill="#524d57"/><path d="m576.72075 1096.1865 73.515.132c5.0235.009 9.105-4.056 9.114-9.0825l.0375-20.5995-82.614-.1485c-8.2005-.015-14.8605 6.6225-14.8755 14.823-.015 8.202 6.6225 14.8605 14.823 14.8755" fill="#524d57"/><path d="m759.77205 1096.5147-73.515-.132c-5.025-.009-9.0915-4.089-9.081-9.114l.036-20.5995 82.6125.147c8.2005.015 14.838 6.675 14.823 14.8755-.015 8.202-6.675 14.838-14.8755 14.823" fill="#524d57"/><path d="m496.94835 911.9355c-1.2075 0-2.406-.045-3.5955-.1365-12.5445-.9555-23.7495-7.0275-32.406-17.565-10.533-12.8175-15.8925-30.7755-13.65-45.75 5.5575-37.095 62.328-94.926 138.6435-101.109l2.643 32.619c-64.3995 5.2185-106.083 54.3855-108.921 73.3395-.8625 5.754 2.0235 14.5935 6.5685 20.1255 3.87 4.7055 7.1655 5.523 9.6075 5.709 8.3145.6165 20.9355-6.03 34.5975-18.282l21.8505 24.363c-19.764 17.7225-38.361 26.6865-55.338 26.6865" fill="#fdd58b"/><path d="m793.8882 758.01705-13.8135-267.291s1.1625-23.52-18.8595-31.662c-8.439-3.4305-15.0255-.7335-21.8865 2.421 2.259-9.888-1.2735-22.1385-8.9925-27.411-8.304-5.6715-17.2725-8.0595-29.907-2.8965 1.1175-14.8785-6.531-32.085-29.8815-32.19-24.4455-.108-32.154 19.0095-31.0905 33.8925-8.412-5.436-18.255-5.9685-26.8995-.8295-11.853 7.05-13.1115 19.668-12.105 29.1855-6.7785-6.579-18.3255-6.843-25.497-4.317-17.781 6.261-18.9765 33.405-18.9765 33.405l-14.772 267.24 124.437.2235v-.051l3.807.006v.0525z" fill="#67c6c0"/><g fill="#524d57"><path d="m603.1245 625.19385c-.003 1.914-1.5555 3.462-3.4695 3.459-1.911-.0045-3.462-1.557-3.459-3.4725.0045-1.9095 1.56-3.456 3.471-3.4545 1.9155.003 3.462 1.557 3.4575 3.468"/><path d="m599.6616 623.4654c-.951 0-1.725.771-1.7265 1.719-.0015.951.771 1.728 1.7235 1.7295h.003c.9495 0 1.722-.7725 1.7235-1.7235v-.0015c.0015-.459-.177-.891-.501-1.2165-.324-.327-.7575-.507-1.2195-.507zm-.0015 6.9255h-.009c-2.868-.0075-5.199-2.3445-5.1945-5.2125.0075-2.865 2.3415-5.19 5.205-5.19h.009c1.3905.003 2.6955.546 3.6765 1.5285.9795.984 1.5195 2.292 1.5165 3.6795-.0045 2.865-2.3385 5.1945-5.2035 5.1945z"/><path d="m599.4522 639.77055c-.003 1.9095-1.5555 3.462-3.4695 3.4575-1.9125-.003-3.459-1.5585-3.4545-3.471.003-1.914 1.5555-3.4605 3.465-3.4575 1.9155.003 3.462 1.557 3.459 3.471"/><path d="m595.9863 638.0376c-.4575 0-.888.177-1.2135.5025s-.5055.759-.5055 1.2195c-.0015.462.177.8955.501 1.2225.3255.3285.7905.4905 1.221.507.4605 0 .8925-.1785 1.2165-.5025.327-.3255.507-.759.507-1.2195l1.74.003-1.74-.003c.0015-.951-.771-1.728-1.7235-1.7295zm.0045 6.9285h-.0135c-1.3875-.003-2.6925-.546-3.6735-1.5315-.9795-.9855-1.518-2.2935-1.515-3.681.003-1.389.5445-2.694 1.53-3.6765.981-.978 2.283-1.5165 3.669-1.5165h.009c2.868.0075 5.199 2.3445 5.1945 5.2125-.003 1.389-.5475 2.694-1.53 3.6735-.9825.981-2.2845 1.5195-3.6705 1.5195z"/><path d="m732.17295 625.24215c-.0045 1.914 1.5465 3.468 3.4575 3.4695 1.914.0045 3.4665-1.542 3.471-3.456.003-1.9125-1.5435-3.468-3.459-3.4725-1.911-.003-3.4665 1.5495-3.4695 3.459"/><path d="m735.63585 623.5224c-.9495 0-1.722.7725-1.7235 1.722v.0015c-.0015.4605.177.894.5025 1.221.324.327.7575.507 1.218.507h.0045c.4605 0 .894-.177 1.218-.501.327-.3255.507-.759.507-1.2225.0015-.9495-.771-1.7265-1.7235-1.728zm.003 6.9285h-.0135c-1.3875-.003-2.6925-.546-3.672-1.5285-.9825-.987-1.5225-2.295-1.5195-3.684.006-2.865 2.34-5.193 5.2035-5.193h.009c2.868.0075 5.199 2.3445 5.1945 5.2125-.0075 2.865-2.34 5.1915-5.202 5.193z"/><path d="m735.7926 639.83205c-.003 1.9095 1.5435 3.468 3.459 3.4695 1.9095.003 3.4665-1.5465 3.4695-3.4575.0045-1.9155-1.5465-3.4665-3.459-3.471-1.914-.003-3.465 1.545-3.4695 3.459"/><path d="m737.53125 639.8364c-.0015.4605.177.894.504 1.2195.3255.327.7575.507 1.218.507h.003c.459 0 .891-.1785 1.218-.504.3285-.3255.5085-.7575.5085-1.218.003-.9525-.771-1.7265-1.725-1.728h-.003c-.9465 0-1.722.771-1.7235 1.7235m1.725 5.205h-.0075c-1.3905-.003-2.6955-.5475-3.678-1.533-.9795-.984-1.518-2.2905-1.5165-3.6795v-.0015c.0075-2.8635 2.34-5.193 5.202-5.193h.009c2.871.0075 5.2005 2.346 5.1945 5.214-.003 1.3875-.546 2.6925-1.5315 3.6735-.984.9795-2.2875 1.5195-3.672 1.5195"/></g><path d="m632.8887 675.0264h-.057c-7.9035-.0135-15.3285-3.1035-20.907-8.703-5.577-5.598-8.6415-13.0335-8.628-20.9385.003-2.0175 1.641-3.651 3.66-3.651h.0075c2.019.003 3.6555 1.644 3.651 3.666-.009 5.9475 2.2965 11.544 6.4935 15.7575 4.2 4.2135 9.789 6.54 15.7365 6.5505h.042c5.9325 0 11.5125-2.3055 15.7155-6.4935 4.2135-4.2 6.54-9.7875 6.552-15.7365.003-2.019 1.641-3.6525 3.6585-3.6525h.0075c2.0205.003 3.657 1.6455 3.6525 3.6675-.015 7.902-3.1065 15.327-8.7045 20.9055-5.586 5.565-12.999 8.628-20.88 8.628" fill="#413d45"/><path d="m702.88035 675.1524h-.051c-7.905-.015-15.33-3.105-20.9085-8.7045-5.577-5.598-8.6415-13.0335-8.628-20.937.003-2.0175 1.641-3.651 3.66-3.651h.0075c2.019.003 3.6555 1.644 3.651 3.666-.0105 5.9475 2.2965 11.5425 6.4935 15.756 4.2 4.215 9.789 6.54 15.738 6.552h.0375c12.2625 0 22.248-9.963 22.2705-22.2285.003-2.0205 1.6395-3.654 3.6585-3.654h.006c2.022.003 3.6585 1.6455 3.654 3.666-.0285 16.296-13.2975 29.535-29.589 29.535" fill="#413d45"/><path d="m668.6412 698.87835c-8.4645 0-16.926-2.5875-23.82-7.7055-1.7115-1.269-2.067-3.6855-.798-5.394 1.2705-1.713 3.687-2.0685 5.3955-.7995 10.3425 7.68 25.713 8.1975 36.5445 1.23 1.791-1.1535 4.176-.6345 5.3295 1.1565 1.152 1.7925.633 4.1775-1.158 5.3295-6.4275 4.134-13.962 6.183-21.4935 6.183" fill="#413d45"/><path d="m532.64805 1164c-.096 0-.1935-.0015-.2895-.003-7.113-.1575-12.75-6.0495-12.594-13.161l1.221-55.1745c.1545-7.014 5.8905-12.5955 12.8715-12.5955.096 0 .1935.0015.2895.003 7.1115.1575 12.75 6.0495 12.594 13.161l-1.221 55.1745c-.1545 7.014-5.892 12.5955-12.8715 12.5955" fill="#f58a44"/><path d="m416.69535 1161.47025c-.5025 0-1.011-.03-1.5225-.09-7.065-.831-12.117-7.233-11.286-14.298l6.2655-53.2365c.831-7.065 7.2315-12.117 14.298-11.286 7.065.831 12.117 7.233 11.286 14.298l-6.264 53.2365c-.7725 6.5535-6.336 11.376-12.777 11.376" fill="#f58a44"/><path d="m458.51955 1161.8028c-.084 0-.165-.0015-.249-.003-7.113-.135-12.7695-6.0105-12.633-13.122l.9975-52.3935c.135-7.113 6.081-12.7845 13.122-12.633 7.113.135 12.7695 6.0105 12.633 13.122l-.9975 52.3935c-.1335 7.0305-5.874 12.636-12.873 12.636" fill="#f37d31"/><path d="m574.45755 1156.95705c-2.3595 0-4.746-.648-6.8865-2.004-6.0075-3.81-7.7895-11.7675-3.9795-17.7765 11.76-18.5445-1.758-31.173-2.34-31.6995-5.2635-4.788-5.649-12.933-.864-18.1965s12.93-5.652 18.1965-.864c10.464 9.5145 25.3425 35.253 6.7635 64.557-2.4525 3.867-6.6255 5.9835-10.89 5.9835" fill="#f37d31"/><path d="m659.88285 1015.1529h-8.6925c-21.957 0-39.9195 17.964-39.9195 39.9195v21.33c0 8.3445-5.6835 15.78-13.842 17.532-11.4855 2.469-21.663-6.2655-21.663-17.331h-32.775c0 27.8595 22.668 50.5245 50.5275 50.5245 25.6725 0 46.9335-19.2495 50.112-44.0715.4545-3.5445 3.501-6.1815 7.074-6.1815h30.921c8.0775 0 14.685-6.6075 14.685-14.685v-10.608c0-20.0355-16.392-36.429-36.4275-36.429" fill="#f58a44"/><path d="m563.0376 1022.6865-59.2455-24.759c-6.708-2.8035-13.9185-2.916-20.6775-.3255l-58.89 22.5825c-10.326 3.9585-18.6375 13.851-22.4985 26.7795l-18.492 61.896c-2.451 8.2005 2.2605 17.01 9.096 17.01h202.062c6.9075 0 11.6205-8.9775 9.036-17.2095l-18.9195-60.2295c-3.843-12.237-11.7045-21.663-21.471-25.7445" fill="#7a7482"/></g><g fill="#67626e"><path d="m173.8521 63.2622c1.3455-2.4045 3.567-3.1755 6.171-2.508 1.59.408 3.0945 1.3725 4.2195 2.55 2.0865 2.1825 3.2055 5.4945 2.547 8.484-.081 1.8495-1.161 3.6345-3.123 4.0905-3.183.7395-6.408-.3345-8.4765-2.8815-2.193-2.697-3.12-6.549-1.338-9.735" mask="url(#b)" transform="translate(382.5 994.4355)"/><path d="m33.37215 40.24365c-.033-.387-.042-.7725-.0255-1.158.1485.126.3.2505.4515.3705.006.171.018.3405.03.5115-.153.0915-.3015.1845-.456.276m-4.071 10.962c3.897 4.2975 10.002 6.4425 15.7125 6.426 6.591-.018 12.6465-3.0435 17.7-7.068 9.336-7.437 19.641-21.7905 13.6185-34.1325-4.4475-9.111-19.221-12.5955-25.038-3-.381.6255-.5775 1.2435-.636 1.8345-4.92.8475-9.741 2.226-14.052 4.839-10.3995 6.3-16.359 21.1095-7.305 31.101" mask="url(#c)" transform="translate(382.5 994.4355)"/><path d="m11.90925 72.15825c.1935-.3.3945-.594.5985-.879.1605-.2745.345-.5415.558-.798.1875-.2265.3855-.4425.585-.6555 3.291-3.8055 7.8165-6.1845 12.63-6.9225 3.414-.8625 7.02-.966 10.1625.8265.1335.0765.255.162.3825.2445.612.2265 1.2165.4845 1.8105.774 1.6005.774 2.3085 2.775 2.073 4.4595.6285 2.25.4425 4.752-.5475 7.0275-1.956 4.4895-6.2835 7.491-11.1585 7.7685-5.748.33-10.9695-2.814-15.5385-5.9145-1.875-1.272-2.8905-3.8505-1.5555-5.931" mask="url(#d)" transform="translate(382.5 994.4355)"/><path d="m169.80765 40.70505c.1935-.3.3945-.594.5985-.8805.1605-.2745.345-.54.558-.798.189-.2265.3855-.4425.585-.654 3.291-3.8055 7.818-6.186 12.63-6.9225 3.4155-.864 7.02-.9675 10.164.825.1335.0765.2535.1635.3825.2445.612.228 1.215.486 1.809.7755 1.6005.774 2.3085 2.7735 2.0745 4.458.627 2.2515.4425 4.7535-.549 7.029-1.956 4.488-6.2835 7.4895-11.1585 7.7685-5.7465.33-10.9695-2.8155-15.5385-5.916-1.875-1.272-2.8905-3.849-1.5555-5.9295" mask="url(#e)" transform="translate(382.5 994.4355)"/><path d="m92.56785 18.0234c.624-.4395 1.3695-.738 2.1735-.885 1.239-.5865 2.6295-.87 4.029-.858.693-.234 1.398-.4215 2.115-.546 1.0365-.1815 2.016-.09 2.859.261 3.492.0255 6.945 1.6845 7.827 5.3355.9135 3.786-1.821 7.4775-4.05 10.26-2.0145 2.514-4.752 4.6605-7.986 5.265-.5085.0945-1.0155.1485-1.5165.174-2.9175.7125-5.979.7005-8.8545-.2355-.1965-.009-.393-.0165-.591-.0315-2.124-.1695-3.402-1.2705-4.179-3.183-2.694-6.615 2.3325-12.981 8.1735-15.5565" mask="url(#f)" transform="translate(382.5 994.4355)"/></g><g transform="translate(612 1033.4355)"><path d="m51.1422 14.6997c0 8.046-6.567 14.571-14.667 14.571s-14.667-6.5235-14.667-14.571 6.567-14.571 14.6685-14.571c8.0985 0 14.6655 6.5235 14.6655 14.571" fill="#f3f1ec"/><path d="m37.21005 4.20405c-4.6305 0-8.385 3.729-8.385 8.331 0 4.599 3.7545 8.328 8.385 8.328s8.385-3.729 8.385-8.3295-3.753-8.3295-8.385-8.3295" fill="#514241"/><path d="m78.8247 14.6997c0 8.046-6.5655 14.571-14.6655 14.571-8.1015 0-14.6685-6.5235-14.6685-14.571s6.567-14.571 14.6685-14.571c8.1 0 14.6655 6.5235 14.6655 14.571" fill="#f3f1ec"/><path d="m64.89405 4.20405c-4.632 0-8.3865 3.729-8.3865 8.331 0 4.599 3.7545 8.328 8.385 8.328 4.632 0 8.3865-3.729 8.3865-8.3295s-3.7545-8.3295-8.385-8.3295" fill="#514241"/><g fill="#fc7c86"><path d="m11.3994 8.80665c0 1.6485 1.3365 2.985 2.985 2.985s2.985-1.3365 2.985-2.985c0-1.65-1.3365-2.985-2.985-2.985s-2.985 1.335-2.985 2.985"/><path d="m10.43565 18.82185c0 1.6485 1.338 2.985 2.985 2.985 1.65 0 2.985-1.3365 2.985-2.985 0-1.65-1.335-2.985-2.985-2.985-1.647 0-2.985 1.335-2.985 2.985"/><path d="m1.38435 13.2363c0 1.6485 1.3365 2.985 2.985 2.985s2.985-1.3365 2.985-2.985c0-1.65-1.3365-2.985-2.985-2.985s-2.985 1.335-2.985 2.985"/></g></g></g></svg>